# xmcd
#
# Track frame offsets:
#	150
#	17374
#	29615
#	45307
#	59004
#	74867
#	88233
#	105572
#	122424
#	149864
#	160194
#
# Disc length: 2344 seconds
#
# Revision: 1
# Processed by: cddbd v1.5.2PL0 Copyright (c) Steve Scherf et al.
# Submitted via: audiograbber 1.83.01
#
DISCID=9e09260b
DTITLE=P J Weston - Songs about home
DYEAR=2007
DGENRE=Country
TTITLE0=Plant myself
TTITLE1=I can feel it
TTITLE2=Kids these days
TTITLE3=Waiting for me
TTITLE4=All in your mind
TTITLE5=A song about home
TTITLE6=Cats and dogs
TTITLE7=Dont grieve for me
TTITLE8=I'm tellin' you
TTITLE9=A song for you
TTITLE10=Fire in the pit
EXTD=
EXTT0=
EXTT1=
EXTT2=
EXTT3=
EXTT4=
EXTT5=
EXTT6=
EXTT7=
EXTT8=
EXTT9=
EXTT10=
PLAYORDER=
